<svg width="469" height="461" viewBox="0 0 469 461" fill="none" xmlns="http://www.w3.org/2000/svg">
<g clip-path="url(#clip0_104_107)">
<path d="M128 269C172.183 269 208 233.183 208 189C208 144.817 172.183 109 128 109C83.8172 109 48 144.817 48 189C48 233.183 83.8172 269 128 269Z" stroke="#1F103B" stroke-width="16" stroke-linecap="round" stroke-linejoin="round"/>
<path d="M128 189H232" stroke="#1F103B" stroke-width="16" stroke-linecap="round" stroke-linejoin="round"/>
<path d="M128 189L76 98.93" stroke="#1F103B" stroke-width="16" stroke-linecap="round" stroke-linejoin="round"/>
<path d="M128 189L76 279.07" stroke="#1F103B" stroke-width="16" stroke-linecap="round" stroke-linejoin="round"/>
<path d="M128 109V85" stroke="#1F103B" stroke-width="16" stroke-linecap="round" stroke-linejoin="round"/>
<path d="M58.72 149L37.93 137" stroke="#1F103B" stroke-width="16" stroke-linecap="round" stroke-linejoin="round"/>
<path d="M48 189H24" stroke="#1F103B" stroke-width="16" stroke-linecap="round" stroke-linejoin="round"/>
<path d="M58.72 229L37.93 241" stroke="#1F103B" stroke-width="16" stroke-linecap="round" stroke-linejoin="round"/>
<path d="M128 269V293" stroke="#1F103B" stroke-width="16" stroke-linecap="round" stroke-linejoin="round"/>
<path d="M168 258.28L180 279.07" stroke="#1F103B" stroke-width="16" stroke-linecap="round" stroke-linejoin="round"/>
<path d="M197.28 229L218.07 241" stroke="#1F103B" stroke-width="16" stroke-linecap="round" stroke-linejoin="round"/>
<path d="M197.28 149L218.07 137" stroke="#1F103B" stroke-width="16" stroke-linecap="round" stroke-linejoin="round"/>
<path d="M168 119.72L180 98.93" stroke="#1F103B" stroke-width="16" stroke-linecap="round" stroke-linejoin="round"/>
</g>
<g clip-path="url(#clip1_104_107)">
<path d="M305.295 303.414C329.57 290.251 338.578 259.901 325.414 235.626C312.251 211.351 281.901 202.344 257.626 215.507C233.352 228.67 224.344 259.02 237.507 283.295C250.67 307.57 281.02 316.578 305.295 303.414Z" stroke="#1F103B" stroke-width="12" stroke-linecap="round" stroke-linejoin="round"/>
<path d="M281.461 259.461L338.601 228.476" stroke="#1F103B" stroke-width="12" stroke-linecap="round" stroke-linejoin="round"/>
<path d="M281.461 259.461L226.056 225.467" stroke="#1F103B" stroke-width="12" stroke-linecap="round" stroke-linejoin="round"/>
<path d="M281.461 259.461L279.725 324.439" stroke="#1F103B" stroke-width="12" stroke-linecap="round" stroke-linejoin="round"/>
<path d="M257.626 215.507L250.476 202.321" stroke="#1F103B" stroke-width="12" stroke-linecap="round" stroke-linejoin="round"/>
<path d="M231.48 258.124L216.482 257.725" stroke="#1F103B" stroke-width="12" stroke-linecap="round" stroke-linejoin="round"/>
<path d="M237.507 283.295L224.321 290.445" stroke="#1F103B" stroke-width="12" stroke-linecap="round" stroke-linejoin="round"/>
<path d="M255.314 302.078L247.467 314.865" stroke="#1F103B" stroke-width="12" stroke-linecap="round" stroke-linejoin="round"/>
<path d="M305.295 303.414L312.445 316.601" stroke="#1F103B" stroke-width="12" stroke-linecap="round" stroke-linejoin="round"/>
<path d="M324.078 285.607L336.865 293.455" stroke="#1F103B" stroke-width="12" stroke-linecap="round" stroke-linejoin="round"/>
<path d="M331.442 260.797L346.439 261.196" stroke="#1F103B" stroke-width="12" stroke-linecap="round" stroke-linejoin="round"/>
<path d="M307.608 216.843L315.455 204.056" stroke="#1F103B" stroke-width="12" stroke-linecap="round" stroke-linejoin="round"/>
<path d="M282.797 209.48L283.196 194.482" stroke="#1F103B" stroke-width="12" stroke-linecap="round" stroke-linejoin="round"/>
</g>
<g clip-path="url(#clip2_104_107)">
<path d="M153.246 390.351C172.907 373.509 175.193 343.918 158.351 324.256C141.509 304.595 111.918 302.31 92.2564 319.151C72.5952 335.993 70.3095 365.584 87.1512 385.246C103.993 404.907 133.584 407.193 153.246 390.351Z" stroke="#1F103B" stroke-width="12" stroke-linecap="round" stroke-linejoin="round"/>
<path d="M122.751 354.751L169.031 315.108" stroke="#1F103B" stroke-width="12" stroke-linecap="round" stroke-linejoin="round"/>
<path d="M122.751 354.751L65.278 334.492" stroke="#1F103B" stroke-width="12" stroke-linecap="round" stroke-linejoin="round"/>
<path d="M122.751 354.751L133.944 414.653" stroke="#1F103B" stroke-width="12" stroke-linecap="round" stroke-linejoin="round"/>
<path d="M92.2564 319.151L83.108 308.471" stroke="#1F103B" stroke-width="12" stroke-linecap="round" stroke-linejoin="round"/>
<path d="M76.6743 363.359L62.8486 365.944" stroke="#1F103B" stroke-width="12" stroke-linecap="round" stroke-linejoin="round"/>
<path d="M87.1512 385.246L76.4713 394.394" stroke="#1F103B" stroke-width="12" stroke-linecap="round" stroke-linejoin="round"/>
<path d="M107.169 398.959L102.492 412.224" stroke="#1F103B" stroke-width="12" stroke-linecap="round" stroke-linejoin="round"/>
<path d="M153.246 390.351L162.394 401.031" stroke="#1F103B" stroke-width="12" stroke-linecap="round" stroke-linejoin="round"/>
<path d="M166.959 370.333L180.224 375.01" stroke="#1F103B" stroke-width="12" stroke-linecap="round" stroke-linejoin="round"/>
<path d="M168.828 346.143L182.653 343.558" stroke="#1F103B" stroke-width="12" stroke-linecap="round" stroke-linejoin="round"/>
<path d="M138.333 310.543L143.01 297.278" stroke="#1F103B" stroke-width="12" stroke-linecap="round" stroke-linejoin="round"/>
<path d="M114.143 308.674L111.558 294.849" stroke="#1F103B" stroke-width="12" stroke-linecap="round" stroke-linejoin="round"/>
</g>
<g clip-path="url(#clip3_104_107)">
<path d="M238.359 353.051C246.567 341.948 244.221 326.294 233.118 318.086C222.016 309.878 206.362 312.224 198.153 323.326C189.945 334.429 192.292 350.083 203.394 358.291C214.496 366.499 230.151 364.153 238.359 353.051Z" stroke="#1F103B" stroke-width="6" stroke-linecap="round" stroke-linejoin="round"/>
<path d="M218.256 338.189L237.577 312.055" stroke="#1F103B" stroke-width="6" stroke-linecap="round" stroke-linejoin="round"/>
<path d="M218.256 338.189L185.963 334.522" stroke="#1F103B" stroke-width="6" stroke-linecap="round" stroke-linejoin="round"/>
<path d="M218.256 338.189L231.229 367.988" stroke="#1F103B" stroke-width="6" stroke-linecap="round" stroke-linejoin="round"/>
<path d="M198.153 323.326L192.123 318.868" stroke="#1F103B" stroke-width="6" stroke-linecap="round" stroke-linejoin="round"/>
<path d="M195.334 348.166L188.456 351.161" stroke="#1F103B" stroke-width="6" stroke-linecap="round" stroke-linejoin="round"/>
<path d="M203.394 358.291L198.935 364.322" stroke="#1F103B" stroke-width="6" stroke-linecap="round" stroke-linejoin="round"/>
<path d="M215.437 363.029L214.59 370.482" stroke="#1F103B" stroke-width="6" stroke-linecap="round" stroke-linejoin="round"/>
<path d="M238.359 353.051L244.39 357.509" stroke="#1F103B" stroke-width="6" stroke-linecap="round" stroke-linejoin="round"/>
<path d="M243.096 341.008L250.55 341.855" stroke="#1F103B" stroke-width="6" stroke-linecap="round" stroke-linejoin="round"/>
<path d="M241.178 328.211L248.056 325.216" stroke="#1F103B" stroke-width="6" stroke-linecap="round" stroke-linejoin="round"/>
<path d="M221.075 313.349L221.922 305.895" stroke="#1F103B" stroke-width="6" stroke-linecap="round" stroke-linejoin="round"/>
<path d="M208.278 315.267L205.283 308.389" stroke="#1F103B" stroke-width="6" stroke-linecap="round" stroke-linejoin="round"/>
</g>
<g clip-path="url(#clip4_104_107)">
<path d="M410.721 345.997C425.164 331.154 424.84 307.413 409.997 292.969C395.154 278.526 371.413 278.85 356.969 293.693C342.526 308.536 342.85 332.277 357.693 346.721C372.536 361.164 396.277 360.84 410.721 345.997Z" stroke="#1F103B" stroke-width="12" stroke-linecap="round" stroke-linejoin="round"/>
<path d="M383.845 319.845L417.843 284.906" stroke="#1F103B" stroke-width="12" stroke-linecap="round" stroke-linejoin="round"/>
<path d="M383.845 319.845L336.587 307.87" stroke="#1F103B" stroke-width="12" stroke-linecap="round" stroke-linejoin="round"/>
<path d="M383.845 319.845L397.105 366.758" stroke="#1F103B" stroke-width="12" stroke-linecap="round" stroke-linejoin="round"/>
<path d="M356.969 293.693L348.906 285.847" stroke="#1F103B" stroke-width="12" stroke-linecap="round" stroke-linejoin="round"/>
<path d="M347.759 330.043L336.931 333.105" stroke="#1F103B" stroke-width="12" stroke-linecap="round" stroke-linejoin="round"/>
<path d="M357.693 346.721L349.847 354.783" stroke="#1F103B" stroke-width="12" stroke-linecap="round" stroke-linejoin="round"/>
<path d="M374.635 356.196L371.87 367.103" stroke="#1F103B" stroke-width="12" stroke-linecap="round" stroke-linejoin="round"/>
<path d="M410.721 345.997L418.783 353.843" stroke="#1F103B" stroke-width="12" stroke-linecap="round" stroke-linejoin="round"/>
<path d="M420.195 329.055L431.103 331.82" stroke="#1F103B" stroke-width="12" stroke-linecap="round" stroke-linejoin="round"/>
<path d="M419.931 309.647L430.758 306.585" stroke="#1F103B" stroke-width="12" stroke-linecap="round" stroke-linejoin="round"/>
<path d="M393.055 283.494L395.82 272.587" stroke="#1F103B" stroke-width="12" stroke-linecap="round" stroke-linejoin="round"/>
<path d="M373.647 283.759L370.585 272.931" stroke="#1F103B" stroke-width="12" stroke-linecap="round" stroke-linejoin="round"/>
</g>
<path d="M299.499 172.096C333.826 168.474 358.718 137.71 355.096 103.383C351.474 69.0555 320.71 44.1639 286.383 47.7858C252.056 51.4077 227.164 82.1715 230.786 116.499C234.408 150.826 265.172 175.718 299.499 172.096Z" stroke="#1F103B" stroke-width="16" stroke-linecap="round" stroke-linejoin="round"/>
<path d="M292.941 109.941L373.742 101.415" stroke="#1F103B" stroke-width="16" stroke-linecap="round" stroke-linejoin="round"/>
<path d="M292.941 109.941L245.157 44.2247" stroke="#1F103B" stroke-width="16" stroke-linecap="round" stroke-linejoin="round"/>
<path d="M292.941 109.941L259.924 184.182" stroke="#1F103B" stroke-width="16" stroke-linecap="round" stroke-linejoin="round"/>
<path d="M286.383 47.7858L284.415 29.1393" stroke="#1F103B" stroke-width="16" stroke-linecap="round" stroke-linejoin="round"/>
<path d="M235.836 84.5425L218.699 76.9235" stroke="#1F103B" stroke-width="16" stroke-linecap="round" stroke-linejoin="round"/>
<path d="M230.786 116.499L212.139 118.466" stroke="#1F103B" stroke-width="16" stroke-linecap="round" stroke-linejoin="round"/>
<path d="M242.394 146.698L227.225 157.725" stroke="#1F103B" stroke-width="16" stroke-linecap="round" stroke-linejoin="round"/>
<path d="M299.499 172.096L301.466 190.742" stroke="#1F103B" stroke-width="16" stroke-linecap="round" stroke-linejoin="round"/>
<path d="M329.698 160.488L340.725 175.657" stroke="#1F103B" stroke-width="16" stroke-linecap="round" stroke-linejoin="round"/>
<path d="M350.046 135.339L367.182 142.958" stroke="#1F103B" stroke-width="16" stroke-linecap="round" stroke-linejoin="round"/>
<path d="M343.488 73.1841L358.657 62.1565" stroke="#1F103B" stroke-width="16" stroke-linecap="round" stroke-linejoin="round"/>
<path d="M318.339 52.8356L325.958 35.6993" stroke="#1F103B" stroke-width="16" stroke-linecap="round" stroke-linejoin="round"/>
<defs>
<clipPath id="clip0_104_107">
<rect width="256" height="256" fill="white" transform="translate(0 61)"/>
</clipPath>
<clipPath id="clip1_104_107">
<rect width="160" height="160" fill="white" transform="translate(173 227.27) rotate(-28.4691)"/>
</clipPath>
<clipPath id="clip2_104_107">
<rect width="150" height="150" fill="white" transform="translate(17 346.583) rotate(-40.5832)"/>
</clipPath>
<clipPath id="clip3_104_107">
<rect width="80" height="80" fill="white" transform="translate(155 343.329) rotate(-53.5241)"/>
</clipPath>
<clipPath id="clip4_104_107">
<rect width="120" height="120" fill="white" transform="translate(299 321.002) rotate(-45.7816)"/>
</clipPath>
</defs>
</svg>
